<svg id="Icons" enable-background="new 0 0 512 512" height="512" viewBox="0 0 512 512" width="512" xmlns="http://www.w3.org/2000/svg"><g><circle cx="256" cy="256" fill="#78c795" r="256"/><g><g><path d="m308.86 165.501v217.186c0 11.523-9.332 20.854-20.846 20.854h-171.366c-11.514 0-20.846-9.332-20.846-20.854v-217.186c0-11.514 9.332-20.854 20.846-20.854h171.366c11.514-.001 20.846 9.34 20.846 20.854z" fill="#c0405c"/><path d="m300.131 151.534v217.186c0 5.377-2.034 10.283-5.368 13.976-3.823 4.225-9.34 6.879-15.477 6.879h-171.367c-6.896 0-12.998-3.343-16.795-8.502l-9.594-13.487 5.648 3.195c-.07-.681-.105-1.362-.105-2.06v-217.187c0-11.514 9.332-20.854 20.846-20.854h171.366c3.143 0 6.111.698 8.782 1.947l-.585-5.482 8.773 12.282c2.435 3.413 3.876 7.594 3.876 12.107z" fill="#c2aacf"/><path d="m300.131 151.534v217.186c0 5.377-2.034 10.283-5.368 13.976-1.641.637-3.422.986-5.29.986-8.101 0-14.657-6.564-14.657-14.657v-235.474c0-.986.096-1.947.279-2.872h4.19c3.143 0 6.111.698 8.782 1.947l-.585-5.482 8.773 12.282c2.435 3.414 3.876 7.595 3.876 12.108z" fill="#f0dae2"/><path d="m291.401 139.313v217.186c0 11.523-9.332 20.854-20.846 20.854h-171.365c-11.514 0-20.846-9.332-20.846-20.854v-217.186c0-11.514 9.332-20.854 20.846-20.854h171.366c11.514-.001 20.845 9.34 20.845 20.854z" fill="#e9465e"/><path d="m127.927 118.458v258.895h-28.737c-11.514 0-20.846-9.332-20.846-20.854v-217.186c0-11.514 9.332-20.854 20.846-20.854h28.737z" fill="#c0405c"/><path d="m249.919 118.458c0 5.517-2.235 10.51-5.849 14.124-3.614 3.623-8.607 5.857-14.124 5.857h-40.565c-11.034 0-19.973-8.948-19.973-19.982h80.511z" fill="#f0a6b3"/><g fill="#c0405c"><circle cx="209.664" cy="204.782" r="48.56"/><path d="m250.25 289.472h-81.171c-4.404 0-7.974 3.57-7.974 7.974 0 4.404 3.57 7.974 7.974 7.974h81.171c4.404 0 7.974-3.57 7.974-7.974 0-4.403-3.571-7.974-7.974-7.974z"/><path d="m262.058 322.628h-104.788c-4.404 0-7.974 3.57-7.974 7.974 0 4.404 3.57 7.974 7.974 7.974h104.787c4.404 0 7.974-3.57 7.974-7.974.001-4.404-3.569-7.974-7.973-7.974z"/></g><path d="m274.812 282.93c-9.162 0-16.589-7.427-16.589-16.589v-93.53c0-9.162 7.427-16.589 16.589-16.589 9.162 0 16.589 7.427 16.589 16.589v93.53c0 9.162-7.427 16.589-16.589 16.589z" fill="#ee6781"/></g><g><g><path d="m103.135 161.346c0 1.004-.183 1.964-.524 2.855-1.144 2.994-4.051 5.124-7.446 5.124h-46.256c-2.209 0-4.199-.89-5.639-2.34-1.449-1.44-2.339-3.431-2.339-5.639 0-4.4 3.57-7.97 7.979-7.97h46.257c2.2 0 4.19.89 5.639 2.34 1.439 1.44 2.329 3.43 2.329 5.63z" fill="#dd8c29"/><path d="m103.135 161.346c0 1.004-.183 1.964-.524 2.855h-42.014c-2.2 0-4.19-.89-5.639-2.34-1.44-1.44-2.331-3.439-2.331-5.639 0-1.004.183-1.964.524-2.846h42.014c2.2 0 4.19.89 5.639 2.34 1.441 1.44 2.331 3.43 2.331 5.63z" fill="#f39e22"/><path d="m89.658 164.2h-17.376c-2.989 0-5.412-2.423-5.412-5.412 0-2.989 2.423-5.412 5.412-5.412h17.377c2.989 0 5.412 2.423 5.412 5.412 0 2.989-2.424 5.412-5.413 5.412z" fill="#f9c744"/></g><g><path d="m103.135 334.457c0 1.004-.183 1.964-.524 2.855-1.144 2.994-4.051 5.124-7.446 5.124h-46.256c-2.209 0-4.199-.89-5.639-2.34-1.449-1.44-2.339-3.431-2.339-5.639 0-4.4 3.57-7.97 7.979-7.97h46.257c2.2 0 4.19.89 5.639 2.34 1.439 1.44 2.329 3.431 2.329 5.63z" fill="#dd8c29"/><path d="m103.135 334.457c0 1.004-.183 1.964-.524 2.855h-42.014c-2.2 0-4.19-.89-5.639-2.34-1.44-1.44-2.331-3.439-2.331-5.639 0-1.004.183-1.964.524-2.846h42.014c2.2 0 4.19.89 5.639 2.34 1.441 1.44 2.331 3.431 2.331 5.63z" fill="#f39e22"/><path d="m89.658 337.312h-17.376c-2.989 0-5.412-2.423-5.412-5.412 0-2.989 2.423-5.412 5.412-5.412h17.377c2.989 0 5.412 2.423 5.412 5.412 0 2.989-2.424 5.412-5.413 5.412z" fill="#f9c744"/></g><g><path d="m103.135 291.18c0 1.004-.183 1.964-.524 2.855-1.144 2.994-4.051 5.124-7.446 5.124h-46.256c-2.209 0-4.199-.89-5.639-2.34-1.449-1.44-2.339-3.431-2.339-5.639 0-4.4 3.57-7.97 7.979-7.97h46.257c2.2 0 4.19.89 5.639 2.34 1.439 1.439 2.329 3.43 2.329 5.63z" fill="#dd8c29"/><path d="m103.135 291.18c0 1.004-.183 1.964-.524 2.855h-42.014c-2.2 0-4.19-.89-5.639-2.34-1.44-1.44-2.331-3.439-2.331-5.639 0-1.004.183-1.964.524-2.846h42.014c2.2 0 4.19.89 5.639 2.34 1.441 1.439 2.331 3.43 2.331 5.63z" fill="#f39e22"/><path d="m89.658 294.034h-17.376c-2.989 0-5.412-2.423-5.412-5.412 0-2.989 2.423-5.412 5.412-5.412h17.377c2.989 0 5.412 2.423 5.412 5.412 0 2.989-2.424 5.412-5.413 5.412z" fill="#f9c744"/></g><g><path d="m103.135 247.902c0 1.004-.183 1.964-.524 2.855-1.144 2.994-4.051 5.124-7.446 5.124h-46.256c-2.209 0-4.199-.89-5.639-2.34-1.449-1.44-2.339-3.431-2.339-5.639 0-4.4 3.57-7.97 7.979-7.97h46.257c2.2 0 4.19.89 5.639 2.34 1.439 1.439 2.329 3.43 2.329 5.63z" fill="#dd8c29"/><path d="m103.135 247.902c0 1.004-.183 1.964-.524 2.855h-42.014c-2.2 0-4.19-.89-5.639-2.34-1.44-1.44-2.331-3.439-2.331-5.639 0-1.004.183-1.964.524-2.846h42.014c2.2 0 4.19.89 5.639 2.34 1.441 1.439 2.331 3.43 2.331 5.63z" fill="#f39e22"/><path d="m89.658 250.756h-17.376c-2.989 0-5.412-2.423-5.412-5.412 0-2.989 2.423-5.412 5.412-5.412h17.377c2.989 0 5.412 2.423 5.412 5.412 0 2.989-2.424 5.412-5.413 5.412z" fill="#f9c744"/></g><g><path d="m103.135 204.624c0 1.004-.183 1.964-.524 2.855-1.144 2.994-4.051 5.124-7.446 5.124h-46.256c-2.209 0-4.199-.89-5.639-2.34-1.449-1.44-2.339-3.431-2.339-5.639 0-4.4 3.57-7.97 7.979-7.97h46.257c2.2 0 4.19.89 5.639 2.34 1.439 1.44 2.329 3.43 2.329 5.63z" fill="#dd8c29"/><path d="m103.135 204.624c0 1.004-.183 1.964-.524 2.855h-42.014c-2.2 0-4.19-.89-5.639-2.34-1.44-1.44-2.331-3.439-2.331-5.639 0-1.004.183-1.964.524-2.846h42.014c2.2 0 4.19.89 5.639 2.34 1.441 1.44 2.331 3.43 2.331 5.63z" fill="#f39e22"/><path d="m89.658 207.478h-17.376c-2.989 0-5.412-2.423-5.412-5.412 0-2.989 2.423-5.412 5.412-5.412h17.377c2.989 0 5.412 2.423 5.412 5.412 0 2.989-2.424 5.412-5.413 5.412z" fill="#f9c744"/></g></g></g><g id="Pencil_6_"><g><path d="m338.265 210.352h33.027v125.9h-33.027z" fill="#f39e22"/><path d="m347.87 219.957v106.691c0 2.654-1.074 5.048-2.815 6.79-1.741 1.741-4.135 2.815-6.789 2.815v-125.9c5.301-.001 9.604 4.295 9.604 9.604z" fill="#c68132"/><path d="m371.292 210.352v125.9c-5.309 0-9.613-4.304-9.613-9.605v-106.69c0-5.309 4.304-9.605 9.613-9.605z" fill="#f9c744"/></g><g><path d="m380.026 343.901c0 4.219-3.422 7.649-7.641 7.649h-35.213c-2.11 0-4.02-.859-5.401-2.24-.698-.698-1.266-1.534-1.649-2.455-.384-.913-.591-1.91-.591-2.954 0-4.227 3.422-7.649 7.641-7.649h35.213c2.11 0 4.02.859 5.401 2.24 1.389 1.381 2.24 3.299 2.24 5.409z" fill="#ebd9ea"/><path d="m380.026 343.901h-22.233c-2.11 0-4.02-.852-5.409-2.24-1.381-1.381-2.24-3.291-2.24-5.409h22.24c2.11 0 4.02.859 5.401 2.24 1.39 1.381 2.241 3.299 2.241 5.409z" fill="#fff"/><path d="m370.698 351.55h-33.525c-2.11 0-4.02-.859-5.401-2.24-.698-.698-1.266-1.534-1.649-2.455h33.525c2.11 0 4.02.859 5.401 2.24.697.698 1.257 1.526 1.649 2.455z" fill="#c1b7d3"/></g><g><path d="m371.288 351.55v11.316c0 5.017-2.232 9.505-5.761 12.528-.307.276-.621.529-.951.767-2.746 2.018-6.13 3.214-9.797 3.214-3.851 0-7.396-1.32-10.203-3.529-.437-.345-.867-.713-1.266-1.112-.069-.054-.138-.123-.207-.192-2.992-2.984-4.841-7.112-4.841-11.676v-11.316z" fill="#ee6781"/><path d="m371.288 351.55v11.316c0 5.017-2.232 9.505-5.761 12.528-.315-.268-.621-.552-.921-.852-2.984-2.984-4.833-7.112-4.833-11.676v-11.316z" fill="#f0a6b3"/><path d="m348.35 351.55v11.316c0 4.664-1.926 8.876-5.04 11.868-.069-.054-.138-.123-.207-.192-2.992-2.984-4.841-7.112-4.841-11.676v-11.316z" fill="#d65171"/></g><path d="m371.288 210.352h-33.026l13.809-34.454h5.416l11.185 27.925z" fill="#f5b890"/><path d="m368.672 203.823h-16.717c-2.839 0-4.772-2.869-3.721-5.501l8.984-22.424h.269z" fill="#fbd9a3"/><g><path d="m358.285 161.061v16.287c0 1.933-1.573 3.498-3.506 3.498-.967 0-1.841-.391-2.478-1.02-.637-.637-1.028-1.511-1.028-2.478v-16.287c0-1.749 1.281-3.191 2.946-3.46.184-.031.368-.046.56-.046 1.933 0 3.506 1.565 3.506 3.506z" fill="#2e3140"/><path d="m358.285 161.061v9.966c-.184.031-.368.046-.56.046-.967 0-1.849-.391-2.478-1.028-.637-.637-1.028-1.511-1.028-2.478v-9.966c.184-.031.368-.046.56-.046 1.933 0 3.506 1.565 3.506 3.506z" fill="#334353"/></g></g><g><g><path d="m424.954 210.348v158.14c0 1.495-.301 2.922-.86 4.229-1.642 3.911-5.518 6.661-10.031 6.661-6.008 0-10.882-4.882-10.882-10.89v-158.14z" fill="#334353"/><path d="m424.954 210.348v158.14c0 1.495-.301 2.922-.86 4.229-.645.129-1.315.189-2.003.189-6.008 0-10.89-4.874-10.89-10.891v-151.667z" fill="#3e4e60"/><path d="m418.078 298.079c-3.798 0-6.876-3.079-6.876-6.876v-46.903c0-3.798 3.079-6.876 6.876-6.876 3.798 0 6.876 3.079 6.876 6.876v46.902c0 3.798-3.078 6.877-6.876 6.877z" fill="#3f5d77"/></g><g><path d="m431.77 150.24v60.168c0 .206-.009.404-.017.61-.318 6.077-5.346 10.908-11.509 10.908h-12.36c-6.361 0-11.518-5.157-11.518-11.518v-60.168c0-6.326 5.097-11.458 11.406-11.518h12.472c6.369 0 11.526 5.157 11.526 11.518z" fill="#2e3140"/><path d="m431.77 150.24v60.168c0 .206-.009.404-.017.61-2.217 1.066-4.702 1.659-7.323 1.659h-1.573c-9.343 0-16.916-7.573-16.916-16.916v-49.381c0-2.759.662-5.355 1.831-7.658h12.472c6.369 0 11.526 5.157 11.526 11.518z" fill="#334353"/><path d="m422.919 198.54c-4.888 0-8.851-3.963-8.851-8.851v-27.662c0-4.888 3.963-8.851 8.851-8.851 4.888 0 8.851 3.963 8.851 8.851v27.662c0 4.889-3.962 8.851-8.851 8.851z" fill="#3e4e60"/></g><g><path d="m447.13 169.07h-15.36v-13.865h15.36c3.829 0 6.932 3.104 6.932 6.932.001 3.829-3.103 6.933-6.932 6.933z" fill="#2e3140"/><g><g><path d="m472.013 234.586c0 2.76-2.24 5-5 5-13.92 0-18.05-11.84-19.94-20.75-.67-3.16-1.2-6.74-1.61-10.8-1.14-11.15-1.4-25.9-1.4-45.43 0-2.76 2.24-5 5-5s5 2.24 5 5c0 9.5.06 17.83.26 25.11.33 12.61 1.05 22.07 2.53 29.04 2.52 11.84 6.4 12.83 10.16 12.83 2.76 0 5 2.24 5 5z" fill="#2e3140"/></g><path d="m472.013 234.586c0 2.76-2.24 5-5 5-7.71 0-12.42-3.63-15.4-8.39-2.41-3.83-3.7-8.38-4.54-12.36-.67-3.16-1.2-6.74-1.61-10.8 1.41-7.5 4.5-14.41 8.86-20.32.33 12.61 1.05 22.07 2.53 29.04.19.89.39 1.72.59 2.49 2.51 9.49 6.09 10.34 9.57 10.34 2.76 0 5 2.24 5 5z" fill="#334353"/><path d="m472.013 234.586c0 2.76-2.24 5-5 5-7.71 0-12.42-3.63-15.4-8.39 1.44-4.25 3.41-8.27 5.83-11.95 2.51 9.49 6.09 10.34 9.57 10.34 2.76 0 5 2.24 5 5z" fill="#3e4e60"/></g></g></g></g></svg>